<svg xmlns="http://www.w3.org/2000/svg" width="22" height="22" viewBox="0 0 22 22">
<g id="Group_1092" data-name="Group 1092" transform="translate(355 -799)">
  <g id="Group_876" data-name="Group 876" transform="translate(129.046 974)">
    <path id="Path_1032" data-name="Path 1032" d="M9.071,8A1.069,1.069,0,0,0,8,9.071v6a1.069,1.069,0,0,0,1.071,1.071h6a1.069,1.069,0,0,0,1.071-1.071v-6A1.069,1.069,0,0,0,15.071,8Zm0,9.857A1.069,1.069,0,0,0,8,18.929v6A1.069,1.069,0,0,0,9.071,26h6a1.069,1.069,0,0,0,1.071-1.071v-6a1.069,1.069,0,0,0-1.071-1.071Zm9.857,0a1.069,1.069,0,0,0-1.071,1.071v6A1.069,1.069,0,0,0,18.929,26h6A1.069,1.069,0,0,0,26,24.929v-6a1.069,1.069,0,0,0-1.071-1.071Z" transform="translate(-490.046 -181)" fill="none" stroke="#000" stroke-width="0.6"/>
    <path id="Path_1069" data-name="Path 1069" d="M22.781,8.969a.348.348,0,0,0-.31.354v1.915H20.523a.349.349,0,0,0,.033.7h1.915v1.915a.348.348,0,1,0,.7,0V11.934h1.915a.348.348,0,1,0,0-.7H23.168V9.322a.348.348,0,0,0-.386-.354Z" transform="translate(-490.46 -181.333)"/>
  </g>
</g>
</svg>