<svg xmlns="http://www.w3.org/2000/svg" width="22" height="22" viewBox="0 0 22 22">
  <g id="Group_1093" data-name="Group 1093" transform="translate(384 -800)">
    <g id="Group_843" data-name="Group 843" transform="translate(-382 802)">
      <g id="Group_875" data-name="Group 875">
        <path id="Path_1032" data-name="Path 1032" d="M9.122,8A1.12,1.12,0,0,0,8,9.122v6.284a1.12,1.12,0,0,0,1.122,1.122h6.284a1.12,1.12,0,0,0,1.122-1.122V9.122A1.12,1.12,0,0,0,15.406,8Zm13.417.891a.449.449,0,0,0-.4.456v2.469H19.629a.449.449,0,1,0,.042.9h2.469v2.469a.449.449,0,1,0,.9,0V12.713h2.469a.449.449,0,1,0,0-.9H23.037V9.347a.449.449,0,0,0-.5-.456ZM9.122,18.324A1.12,1.12,0,0,0,8,19.446V25.73a1.12,1.12,0,0,0,1.122,1.122h6.284a1.12,1.12,0,0,0,1.122-1.122V19.446a1.12,1.12,0,0,0-1.122-1.122Zm10.324,0a1.12,1.12,0,0,0-1.122,1.122V25.73a1.12,1.12,0,0,0,1.122,1.122H25.73a1.12,1.12,0,0,0,1.122-1.122V19.446a1.12,1.12,0,0,0-1.122-1.122Z" transform="translate(-8 -8)" fill="#0c8ae3"/>
      </g>
    </g>
  </g>
</svg>