<svg xmlns="http://www.w3.org/2000/svg" width="24" height="24" viewBox="0 0 24 24">
<g id="Group_2721" data-name="Group 2721" transform="translate(87 -4116)">
  <g id="Group_1075" data-name="Group 1075" transform="translate(399.046 4293)">
    <path id="Path_1032" data-name="Path 1032" d="M8.969,8A.969.969,0,0,0,8,8.969V14.41a.969.969,0,0,0,.969.969H14.41a.969.969,0,0,0,.969-.969V8.969A.969.969,0,0,0,14.41,8Zm0,8.94A.969.969,0,0,0,8,17.908V23.35a.969.969,0,0,0,.969.969H14.41a.969.969,0,0,0,.969-.969V17.911a.969.969,0,0,0-.969-.969Zm8.94,0a.969.969,0,0,0-.969.969V23.35a.969.969,0,0,0,.969.969H23.35a.969.969,0,0,0,.969-.969V17.911a.969.969,0,0,0-.969-.969Z" transform="translate(-490.046 -181)" fill="none" stroke="#000" stroke-width="0.8"/>
    <path id="Path_1069" data-name="Path 1069" d="M22.54,8.969a.316.316,0,0,0-.277.321v1.737h-1.77a.316.316,0,1,0,.029.631h1.737V13.4a.316.316,0,0,0,.631,0V11.658h1.743a.316.316,0,1,0,0-.631H22.89V9.29a.316.316,0,0,0-.35-.321Z" transform="translate(-491.556 -181.391)" stroke="#1c1c1c" stroke-width="0.5"/>
  </g>
</g>
</svg>