<svg xmlns="http://www.w3.org/2000/svg" xmlns:xlink="http://www.w3.org/1999/xlink" width="35.833" height="42.042" viewBox="0 0 35.833 42.042">
<defs>
  <linearGradient id="linear-gradient" x1="0.5" x2="0.5" y2="1" gradientUnits="objectBoundingBox">
    <stop offset="0" stop-color="#767ae8"/>
    <stop offset="1" stop-color="#ac49d8"/>
  </linearGradient>
</defs>
<g id="icon" transform="translate(0 0)">
  <g id="Group_278" data-name="Group 278">
    <path id="Path_288" data-name="Path 288" d="M35.275,33.326V30.412c-.006-1.541-.012-3.087-.019-4.628a2.762,2.762,0,0,1,.254-1.281,2.365,2.365,0,0,1,2.642-1.25,2.333,2.333,0,0,1,1.819,2.283v12.35a.778.778,0,0,0,.631.854.737.737,0,0,0,.86-.619,2.961,2.961,0,0,0,.012-.328v-6.36c0-.34,0-.34.328-.408A2.343,2.343,0,0,1,44.637,33.3c.006,1.534,0,3.075,0,4.609a.771.771,0,0,0,.619.823.734.734,0,0,0,.872-.625,2.584,2.584,0,0,0,.012-.309V32.955c0-.3.006-.309.3-.377A2.341,2.341,0,0,1,49.3,34.861c.006,1.534,0,3.075,0,4.609a.769.769,0,0,0,.631.817.742.742,0,0,0,.866-.613,2.288,2.288,0,0,0,.012-.291V36.061c0-.291.012-.3.291-.365a2.345,2.345,0,0,1,2.871,2.271c.006,1.479.019,2.957-.006,4.436a22.566,22.566,0,0,1-.668,4.857c-.452,1.918-1.1,3.78-1.72,5.649a15.952,15.952,0,0,0-.662,2.394l-.019.093a1.359,1.359,0,0,0-.031.384c.031.161.217.105.322.161a.813.813,0,0,1,.427.879.794.794,0,0,1-.767.631c-.408.006-.817,0-1.225,0H36.878a.783.783,0,0,1-.841-.885.739.739,0,0,1,.557-.656c.2-.062.167-.13.062-.254-.445-.532-.891-1.064-1.33-1.6A29.95,29.95,0,0,1,31.7,48.807a10.162,10.162,0,0,1-1.052-2.976,4.617,4.617,0,0,1-.062-.718c0-1.027.019-2.048-.006-3.075a4.1,4.1,0,0,1,1.089-2.852,7.857,7.857,0,0,1,1.869-1.541c.167-.105.186-.087.186.111V41a.774.774,0,0,0,.445.773.756.756,0,0,0,1.077-.662c.006-.074.006-.155.006-.235.031-2.512.031-5.036.025-7.555Z" transform="translate(-19.722 -15.411)" fill="url(#linear-gradient)"/>
    <path id="Path_289" data-name="Path 289" d="M59.506,15.322H49.068a.776.776,0,0,1-.829-.86.788.788,0,0,1,.718-.724c.087-.006.167,0,.254,0H59.283a.482.482,0,0,0,.229-.019c-.012-.074-.074-.105-.118-.148-.526-.526-1.058-1.052-1.578-1.584a.792.792,0,0,1,.316-1.33.747.747,0,0,1,.773.179c1.052,1.046,2.1,2.091,3.149,3.149a.755.755,0,0,1,0,1.089c-1.046,1.052-2.091,2.1-3.149,3.149a.776.776,0,0,1-1.12-.037.788.788,0,0,1,.012-1.108c.526-.532,1.052-1.052,1.584-1.578a1.454,1.454,0,0,1,.155-.118A.288.288,0,0,1,59.506,15.322Z" transform="translate(-26.454 -10.617)" fill="url(#linear-gradient)"/>
    <path id="Path_290" data-name="Path 290" d="M15.753,13.737H26.24a.792.792,0,0,1,.124,1.578c-.087.006-.167,0-.254,0H15.79a.348.348,0,0,0,.13.173l1.541,1.541a.8.8,0,1,1-1.132,1.12c-1-1-2-2-2.995-2.995a.8.8,0,0,1-.006-1.244c1-1,2-2.011,3.013-3.013a.8.8,0,1,1,1.151,1.1c-.52.526-1.046,1.046-1.565,1.572A1.127,1.127,0,0,0,15.753,13.737Z" transform="translate(-13.031 -10.615)" fill="url(#linear-gradient)"/>
  </g>
</g>
</svg>