<svg xmlns="http://www.w3.org/2000/svg" width="14.17" height="18" viewBox="0 0 14.17 18">
  <path id="Path_3199" data-name="Path 3199" d="M15.106,955.362A2.11,2.11,0,0,0,13,957.468v12.255a2.11,2.11,0,0,0,2.106,2.106h4.865c-.281.51-.56,1.019-.844,1.532H27.17c-.65-1.166-1.285-2.329-1.921-3.489,0-.049.006-.1.006-.15V957.468a2.11,2.11,0,0,0-2.106-2.106H15.106Zm0,.766h8.043a1.329,1.329,0,0,1,1.34,1.34v11.023c-.442-.8-.886-1.6-1.34-2.406-.934,1.666-1.846,3.319-2.759,4.979H15.106a1.329,1.329,0,0,1-1.34-1.34V957.468a1.329,1.329,0,0,1,1.34-1.34Zm.191,2.489a.383.383,0,0,0,0,.766h7.66a.383.383,0,0,0,0-.766Zm0,3.064a.383.383,0,1,0,0,.766h7.66a.383.383,0,1,0,0-.766Zm0,3.064a.383.383,0,0,0,0,.766h7.66a.383.383,0,0,0,0-.766Zm7.851,2.89L25.83,972.6H20.468Zm-7.851.174a.383.383,0,1,0,0,.766h3.83a.383.383,0,1,0,0-.766Zm7.851.766a.383.383,0,0,0-.383.383v1.915a.383.383,0,1,0,.766,0v-1.915A.383.383,0,0,0,23.149,968.575Zm0,2.872a.479.479,0,1,0,.479.479A.479.479,0,0,0,23.149,971.447Z" transform="translate(-13 -955.362)"/>
</svg>
