<svg id="noun_FAQ_170995" xmlns="http://www.w3.org/2000/svg" width="16.205" height="18" viewBox="0 0 16.205 18">
  <path id="Path_1087" data-name="Path 1087" d="M36.405,20.544A3.644,3.644,0,0,0,32.762,16.9H23.844A3.644,3.644,0,0,0,20.2,20.544v7.1a3.65,3.65,0,0,0,3.018,3.589V34.3a.653.653,0,0,0,.326.544.49.49,0,0,0,.272.054.546.546,0,0,0,.353-.109l1.822-1.332a11.448,11.448,0,0,1,6.77-2.2,3.644,3.644,0,0,0,3.644-3.644Zm-1.2,7.1a2.425,2.425,0,0,1-2.42,2.42,12.779,12.779,0,0,0-7.477,2.42l-.87.625V30.658a.6.6,0,0,0-.6-.6,2.425,2.425,0,0,1-2.42-2.42v-7.1a2.425,2.425,0,0,1,2.42-2.42h8.946a2.425,2.425,0,0,1,2.42,2.42Z" transform="translate(-20.2 -16.9)"/>
  <path id="Path_1088" data-name="Path 1088" d="M44.918,31A2.1,2.1,0,0,0,42.7,33.127a.669.669,0,1,0,1.337,0c0-.729.79-.76.881-.76s.881.03.881.76v.152a.772.772,0,0,1-.425.7l-.608.334a.985.985,0,0,0-.517.881v.547a.669.669,0,1,0,1.337,0v-.334l.425-.213a2.115,2.115,0,0,0,1.124-1.884v-.182A2.112,2.112,0,0,0,44.918,31Z" transform="translate(-36.816 -27.332)"/>
  <path id="Path_1089" data-name="Path 1089" d="M48.121,51.3a.851.851,0,0,0,0,1.7A.851.851,0,0,0,48.121,51.3Z" transform="translate(-40.018 -42.048)"/>
</svg>
