<svg xmlns="http://www.w3.org/2000/svg" width="24" height="24" viewBox="0 0 24 24">
<g id="Group_2727" data-name="Group 2727" transform="translate(115 -4344)">
  <g id="Group_2725" data-name="Group 2725">
    <g id="noun_feedback_2271428" transform="translate(-115.685 4341.631)">
      <path id="Path_3050" data-name="Path 3050" d="M32.145,7,31.8,6.652a.97.97,0,0,0-1.37,0l-6.039,6.039a.339.339,0,0,0-.085.142L23.781,14.6a.335.335,0,0,0,.417.417l1.766-.523a.33.33,0,0,0,.142-.085l6.039-6.039A.969.969,0,0,0,32.145,7Zm-7.178,7.089a.755.755,0,0,0-.259-.259l.214-.726.77.77Zm6.7-6.193-.395.4-.77-.77.395-.395a.3.3,0,0,1,.422,0l.348.348A.3.3,0,0,1,31.671,7.9Z" transform="translate(-10.705 0)"/>
      <path id="Path_3051" data-name="Path 3051" d="M11.955,15.406v.934h5.984l.933-.934Z" transform="translate(-4.408 -4.817)"/>
      <path id="Path_3052" data-name="Path 3052" d="M15.9,21.483H10.155v.934h5.469c0-.009,0-.018.006-.027Z" transform="translate(-3.449 -8.056)"/>
      <path id="Path_3053" data-name="Path 3053" d="M18.766,14.823c0,3.185-3.173,5.776-7.073,5.776a8.342,8.342,0,0,1-2.984-.541.468.468,0,0,0-.462.075L6.724,21.378v-2.23a.468.468,0,0,0-.162-.354,5.243,5.243,0,0,1-1.943-3.971c0-3.185,3.173-5.776,7.073-5.776a8.139,8.139,0,0,1,4.144,1.1l.677-.677a9.01,9.01,0,0,0-4.82-1.356c-4.415,0-8.007,3.01-8.007,6.71A6.12,6.12,0,0,0,5.79,19.358v3.006a.467.467,0,0,0,.763.361l2.079-1.7a9.288,9.288,0,0,0,3.061.509c4.415,0,8.007-3.01,8.007-6.71a5.7,5.7,0,0,0-.392-2.072l-.735.735A4.768,4.768,0,0,1,18.766,14.823Z" transform="translate(0 -0.93)"/>
    </g>
  </g>
</g>
</svg>