<svg xmlns="http://www.w3.org/2000/svg" width="24" height="24" viewBox="0 0 24 24">
<g id="Group_2722" data-name="Group 2722" transform="translate(87 -4152)">
  <g id="noun_following_2086891" transform="translate(-95.02 4137.13)">
    <g id="Group_2634" data-name="Group 2634" transform="translate(11.02 18.87)">
      <path id="Path_3017" data-name="Path 3017" d="M24.566,19.877a3.191,3.191,0,0,1,1.912,5.745,3.831,3.831,0,0,1,2.542,3.452,3.39,3.39,0,0,1-.365,1.515.5.5,0,0,1-.9-.448,2.349,2.349,0,0,0,.254-1.067c0-1.78-1.836-2.817-3.448-2.817a3.539,3.539,0,0,0-3.194,1.76,4.327,4.327,0,0,1,.961,2.695,4.257,4.257,0,0,1-.462,1.91.5.5,0,0,1-.9-.448,3.217,3.217,0,0,0,.351-1.462c0-2.4-2.466-3.824-4.651-3.824s-4.646,1.42-4.646,3.824a3.128,3.128,0,0,0,.224,1.182h5.918L16.278,30a.5.5,0,0,1,.714-.711l2.718,2.718a.5.5,0,0,1,.014.725l-2.732,2.732a.5.5,0,0,1-.714-.711L18.13,32.9h-6.2a.5.5,0,0,1-.471-.326,4.241,4.241,0,0,1-.439-1.864,4.906,4.906,0,0,1,3.494-4.466,4,4,0,1,1,4.316,0,5.833,5.833,0,0,1,1.813,1.023,4.25,4.25,0,0,1,2.011-1.646,3.19,3.19,0,0,1,1.912-5.743Zm-7.9,0a3,3,0,1,0,3,3A2.995,2.995,0,0,0,16.671,19.877Zm7.9,1.007a2.183,2.183,0,1,0,2.184,2.184A2.185,2.185,0,0,0,24.566,20.884Z" transform="translate(-11.02 -18.87)"/>
    </g>
  </g>
</g>
</svg>