<svg xmlns="http://www.w3.org/2000/svg" width="17.891" height="17.893" viewBox="0 0 17.891 17.893">
<g id="Group_280" data-name="Group 280" transform="translate(-0.001 -0.001)">
  <path id="Path_300" data-name="Path 300" d="M244.338,26.45h-7.006a1.907,1.907,0,0,1-1.938-1.925q0-7.034,0-14.068a1.9,1.9,0,0,1,1.893-1.893h14.069a1.9,1.9,0,0,1,1.928,1.933V24.491a1.912,1.912,0,0,1-1.6,1.94,2.443,2.443,0,0,1-.485.022h-6.857Zm0-8.931h-7.4c-.171,0-.225.045-.225.22v6.709a.654.654,0,0,0,.267.584.747.747,0,0,0,.465.1h13.826a.6.6,0,0,0,.69-.685V17.738c0-.178-.057-.218-.225-.218q-3.7,0-7.4,0Zm-2.584-4.469a1.883,1.883,0,1,0-1.873,1.873,1.864,1.864,0,0,0,1.876-1.872Zm5.123-1.893h-3.142a.606.606,0,0,0-.512.218.568.568,0,0,0-.087.646.6.6,0,0,0,.567.361h6.345a.591.591,0,0,0,.631-.594.584.584,0,0,0-.616-.624c-1.055-.011-2.12-.009-3.184-.006Zm.012,3.764h3.192a.573.573,0,0,0,.6-.631.588.588,0,0,0-.621-.582h-6.369a.613.613,0,0,0-.614.619.6.6,0,0,0,.614.6q1.6,0,3.2-.005Z" transform="translate(-235.393 -8.563)"/>
</g>
</svg>