<svg xmlns="http://www.w3.org/2000/svg" width="18.809" height="18.809" viewBox="0 0 18.809 18.809">
<g id="noun_Info_2510064" transform="translate(-5 -5)">
  <path id="Path_1093" data-name="Path 1093" d="M14.794,9.154a1.384,1.384,0,0,1,1.322-1.019.835.835,0,0,1,.876,1.032,1.384,1.384,0,0,1-1.322,1.019A.835.835,0,0,1,14.794,9.154Zm2.074,9.258c-1.085.625-2.044.728-1.812-.342l1.222-5.621c.244-1.123-1.073-1.407-2.254-.807A7.474,7.474,0,0,0,11.8,13.432a.109.109,0,0,0,.136.166c1.085-.625,2.044-.728,1.812.342L12.531,19.56c-.244,1.123,1.073,1.407,2.254.807A7.474,7.474,0,0,0,17,18.578a.109.109,0,0,0-.136-.166ZM23.809,14.4A9.4,9.4,0,1,1,14.4,5,9.4,9.4,0,0,1,23.809,14.4Zm-1.045,0a8.36,8.36,0,1,0-8.36,8.36,8.36,8.36,0,0,0,8.36-8.36Z" fill="#0c8ae3"/>
</g>
</svg>