<svg xmlns="http://www.w3.org/2000/svg" width="56.792" height="56.792" viewBox="0 0 56.792 56.792">
<g id="noun_Smile_1740164" transform="translate(0 0)">
  <g id="Group_87" data-name="Group 87" transform="translate(0 0)">
    <path id="Path_191" data-name="Path 191" d="M32.4,956.362a28.4,28.4,0,1,0,28.4,28.4A28.424,28.424,0,0,0,32.4,956.362Zm0,3.7A24.692,24.692,0,1,1,7.7,984.758,24.664,24.664,0,0,1,32.4,960.066ZM21.9,973.029a4.321,4.321,0,1,0,4.321,4.321A4.321,4.321,0,0,0,21.9,973.029Zm20.988,0a4.321,4.321,0,1,0,4.321,4.321A4.321,4.321,0,0,0,42.89,973.029ZM18.622,990.313a1.784,1.784,0,0,0-1.466.964,1.874,1.874,0,0,0,.116,1.91,18,18,0,0,0,30.248,0,1.915,1.915,0,0,0-.5-2.566,1.939,1.939,0,0,0-2.585.5,14.28,14.28,0,0,1-24.075,0A2.129,2.129,0,0,0,18.622,990.313Z" transform="translate(-4 -956.362)" fill="#93df20"/>
  </g>
</g>
</svg>