<svg xmlns="http://www.w3.org/2000/svg" width="45.097" height="45.097" viewBox="0 0 45.097 45.097">
<g id="Group_1121" data-name="Group 1121" transform="translate(-872 3237)">
  <g id="noun_Smile_1740164" transform="translate(872 -3237)">
    <g id="Group_87" data-name="Group 87" transform="translate(0 0)">
      <path id="Path_191" data-name="Path 191" d="M26.548,956.362A22.548,22.548,0,1,0,49.1,978.91,22.571,22.571,0,0,0,26.548,956.362Zm0,2.941A19.607,19.607,0,1,1,6.941,978.91,19.585,19.585,0,0,1,26.548,959.3ZM18.215,969.6a3.431,3.431,0,1,0,3.431,3.431A3.431,3.431,0,0,0,18.215,969.6Zm16.666,0a3.431,3.431,0,1,0,3.431,3.431A3.431,3.431,0,0,0,34.882,969.6Zm-19.27,13.725a1.417,1.417,0,0,0-1.164.766,1.488,1.488,0,0,0,.092,1.516,14.3,14.3,0,0,0,24.019,0,1.52,1.52,0,0,0-.4-2.037,1.54,1.54,0,0,0-2.053.4,11.339,11.339,0,0,1-19.117,0A1.691,1.691,0,0,0,15.611,983.322Z" transform="translate(-4 -956.362)" fill="#c5c5c5"/>
    </g>
  </g>
</g>
</svg>