<svg xmlns="http://www.w3.org/2000/svg" width="56.97" height="44.579" viewBox="0 0 56.97 44.579">
<g id="Group_1120" data-name="Group 1120" transform="translate(-949 3235.894)">
  <g id="Group_1117" data-name="Group 1117" transform="translate(949 -3235.894)">
    <g id="noun_Smile_1740164" transform="translate(0 0)">
      <g id="Group_87" data-name="Group 87" transform="translate(0 0)">
        <path id="Path_191" data-name="Path 191" d="M26.29,956.362a22.29,22.29,0,1,0,22.29,22.29A22.312,22.312,0,0,0,26.29,956.362Zm0,2.907A19.382,19.382,0,1,1,6.907,978.652,19.36,19.36,0,0,1,26.29,959.269Zm-8.238,10.176a3.392,3.392,0,1,0,3.392,3.392A3.392,3.392,0,0,0,18.052,969.445Zm16.475,0a3.392,3.392,0,1,0,3.392,3.392A3.392,3.392,0,0,0,34.527,969.445ZM15.478,983.013a1.4,1.4,0,0,0-1.151.757,1.471,1.471,0,0,0,.091,1.5,14.132,14.132,0,0,0,23.743,0,1.5,1.5,0,0,0-.394-2.014,1.522,1.522,0,0,0-2.029.394,11.209,11.209,0,0,1-18.9,0A1.671,1.671,0,0,0,15.478,983.013Z" transform="translate(-4 -956.362)" fill="#c5c5c5"/>
      </g>
    </g>
    <path id="Path_194" data-name="Path 194" d="M1655.325,2407.177c.862-.289,5.128-6.58,10.117-1.591s-4.194,11.931-4.194,11.931-5.193,7.448-5.923,6.724-9.479-10.05-9.479-10.05-4.7-5.28,0-9.111S1655.325,2407.177,1655.325,2407.177Z" transform="translate(-1610.419 -2401.399)" fill="#fff"/>
  </g>
  <g id="Group_1118" data-name="Group 1118" transform="translate(981.248 -3234.328)">
    <path id="Path_192" data-name="Path 192" d="M27.529,976.378a6.358,6.358,0,0,0-4.623,1.985,6.978,6.978,0,0,0,0,9.578l9.831,10.324a.853.853,0,0,0,1.239,0q4.924-5.153,9.845-10.311a6.975,6.975,0,0,0,0-9.578,6.374,6.374,0,0,0-9.259,0l-1.2,1.252-1.2-1.265a6.387,6.387,0,0,0-4.636-1.985Zm0,1.665a4.7,4.7,0,0,1,3.4,1.505l1.825,1.905a.853.853,0,0,0,1.239,0l1.812-1.891a4.6,4.6,0,0,1,6.794,0,5.271,5.271,0,0,1,0,7.22q-4.612,4.826-9.232,9.645l-9.232-9.658a5.272,5.272,0,0,1,0-7.22,4.7,4.7,0,0,1,3.4-1.505Z" transform="translate(-21.004 -976.378)" fill="#c5c5c5"/>
  </g>
</g>
</svg>