<svg xmlns="http://www.w3.org/2000/svg" width="72.577" height="56.792" viewBox="0 0 72.577 56.792">
<g id="Group_1119" data-name="Group 1119" transform="translate(-1298 3235.894)">
  <g id="Group_1115" data-name="Group 1115" transform="translate(1298 -3235.894)">
    <g id="noun_Smile_1740164" transform="translate(0 0)">
      <g id="Group_87" data-name="Group 87" transform="translate(0 0)">
        <path id="Path_191" data-name="Path 191" d="M32.4,956.362a28.4,28.4,0,1,0,28.4,28.4A28.424,28.424,0,0,0,32.4,956.362Zm0,3.7A24.692,24.692,0,1,1,7.7,984.758,24.664,24.664,0,0,1,32.4,960.066ZM21.9,973.029a4.321,4.321,0,1,0,4.321,4.321A4.321,4.321,0,0,0,21.9,973.029Zm20.988,0a4.321,4.321,0,1,0,4.321,4.321A4.321,4.321,0,0,0,42.89,973.029ZM18.622,990.313a1.785,1.785,0,0,0-1.466.964,1.874,1.874,0,0,0,.116,1.91,18,18,0,0,0,30.248,0,1.915,1.915,0,0,0-.5-2.566,1.939,1.939,0,0,0-2.585.5,14.28,14.28,0,0,1-24.075,0A2.129,2.129,0,0,0,18.622,990.313Z" transform="translate(-4 -956.362)" fill="#6ea41d"/>
      </g>
    </g>
    <path id="Path_194" data-name="Path 194" d="M1658.494,2408.138c1.1-.369,6.532-8.383,12.888-2.027s-5.343,15.2-5.343,15.2-6.616,9.488-7.546,8.566-12.075-12.8-12.075-12.8-5.988-6.726,0-11.607S1658.494,2408.138,1658.494,2408.138Z" transform="translate(-1601.286 -2400.778)" fill="#fff"/>
  </g>
  <g id="Group_1116" data-name="Group 1116" transform="translate(1339.082 -3233.899)">
    <path id="Path_192" data-name="Path 192" d="M29.317,976.378a8.1,8.1,0,0,0-5.889,2.529,8.89,8.89,0,0,0,0,12.2l12.525,13.152a1.087,1.087,0,0,0,1.578,0Q43.8,997.7,50.072,991.125a8.886,8.886,0,0,0,0-12.2,8.12,8.12,0,0,0-11.795,0l-1.527,1.6-1.527-1.612a8.136,8.136,0,0,0-5.906-2.529Zm0,2.121a5.982,5.982,0,0,1,4.328,1.918l2.325,2.427a1.086,1.086,0,0,0,1.578,0l2.308-2.41a5.863,5.863,0,0,1,8.655,0,6.715,6.715,0,0,1,0,9.2q-5.875,6.148-11.761,12.287l-11.761-12.3a6.717,6.717,0,0,1,0-9.2,5.982,5.982,0,0,1,4.328-1.918Z" transform="translate(-21.004 -976.378)" fill="#6ea41d"/>
  </g>
</g>
</svg>