<svg xmlns="http://www.w3.org/2000/svg" width="24" height="24" viewBox="0 0 24 24">
<g id="Group_2723" data-name="Group 2723" transform="translate(87 -4188)">
  <g id="noun_notification_1594287" transform="translate(-107.5 4169)">
    <g id="Group_2632" data-name="Group 2632" transform="translate(24.5 22)">
      <g id="Group_2631" data-name="Group 2631" transform="translate(0 0)">
        <path id="Path_3016" data-name="Path 3016" d="M35.313,37.611a2.708,2.708,0,0,1-5.379,0H25.3a.8.8,0,0,1-.8-.8v-.957a1.753,1.753,0,0,1,1.753-1.752.16.16,0,0,0,.159-.16V30.124a6.214,6.214,0,0,1,4.3-5.913v-.3a1.912,1.912,0,1,1,3.823,0v.3a6.215,6.215,0,0,1,4.3,5.913v3.823a.158.158,0,0,0,.159.16,1.754,1.754,0,0,1,1.753,1.752v.957a.8.8,0,0,1-.8.8Zm-.966,0H30.9a1.753,1.753,0,0,0,3.447,0Zm5.445-1.752a.8.8,0,0,0-.8-.8,1.114,1.114,0,0,1-1.114-1.116V30.124a5.258,5.258,0,0,0-3.942-5.091l-.359-.092V23.912a.956.956,0,1,0-1.912,0V24.94l-.359.092a5.257,5.257,0,0,0-3.942,5.091v3.823a1.116,1.116,0,0,1-1.114,1.116.8.8,0,0,0-.8.8v.8H39.792Z" transform="translate(-24.5 -22)"/>
      </g>
    </g>
  </g>
</g>
</svg>