<svg xmlns="http://www.w3.org/2000/svg" width="22.363" height="21.9" viewBox="0 0 22.363 21.9">
  <g id="noun_Photo_1615258" transform="translate(-14.71 -15.44)">
    <g id="Layer_2" data-name="Layer 2" transform="translate(14.71 15.44)">
      <path id="Path_1042" data-name="Path 1042" d="M30.889,27.44H16.627a1.921,1.921,0,0,0-1.917,1.917V43.619a1.921,1.921,0,0,0,1.917,1.917H30.889a1.921,1.921,0,0,0,1.917-1.917V29.357A1.921,1.921,0,0,0,30.889,27.44Zm1.125,16.186a1.128,1.128,0,0,1-1.125,1.125H16.627A1.128,1.128,0,0,1,15.5,43.626V29.364a1.128,1.128,0,0,1,1.125-1.125H30.889a1.128,1.128,0,0,1,1.125,1.125Z" transform="translate(-14.71 -23.637)"/>
      <path id="Path_1043" data-name="Path 1043" d="M44.389,15.44H30.127a1.921,1.921,0,0,0-1.917,1.917v1.093a.4.4,0,1,0,.792,0V17.357a1.128,1.128,0,0,1,1.125-1.125H44.389a1.128,1.128,0,0,1,1.125,1.125V31.619a1.128,1.128,0,0,1-1.125,1.125H43.356a.4.4,0,1,0,0,.792h1.021a1.921,1.921,0,0,0,1.917-1.917V17.357A1.921,1.921,0,0,0,44.389,15.44Z" transform="translate(-23.931 -15.44)"/>
      <path id="Path_1044" data-name="Path 1044" d="M31.212,54.386a.4.4,0,0,0-.285-.168.39.39,0,0,0-.317.108l-1.629,1.547-2.329-3.058a.39.39,0,0,0-.333-.155.4.4,0,0,0-.317.184l-4.285,6.82a.4.4,0,0,0,.336.609H34.524a.4.4,0,0,0,.317-.634Zm-8.443,5.09,3.6-5.73L28.623,56.7a.407.407,0,0,0,.6.048l1.613-1.534,2.944,4.26Z" transform="translate(-19.454 -40.863)"/>
      <path id="Path_1045" data-name="Path 1045" d="M24.07,39.51a1.87,1.87,0,1,0-1.87-1.87A1.87,1.87,0,0,0,24.07,39.51Zm0-2.944a1.072,1.072,0,1,1-.763.314,1.078,1.078,0,0,1,.763-.314Z" transform="translate(-19.826 -29.327)"/>
    </g>
  </g>
</svg>
