<svg xmlns="http://www.w3.org/2000/svg" width="24" height="24" viewBox="0 0 24 24">
<g id="Group_2719" data-name="Group 2719" transform="translate(87 -4048)">
  <g id="noun_profile_2149046" transform="translate(-85.983 4035.9)">
    <g id="Group_2718" data-name="Group 2718" transform="translate(1.983 15.1)">
      <path id="Path_3045" data-name="Path 3045" d="M24.066,15.1A8.971,8.971,0,1,0,30.4,17.728,8.908,8.908,0,0,0,24.066,15.1ZM19.972,31.018V29.5A4.015,4.015,0,0,1,23.98,25.48h.171A4.018,4.018,0,0,1,28.159,29.5v1.515a8.041,8.041,0,0,1-8.188,0Zm9.8-1.243a6.833,6.833,0,0,1-.715.633v-.9a4.911,4.911,0,0,0-4.9-4.916H23.98a4.906,4.906,0,0,0-4.9,4.913v.9a6.431,6.431,0,0,1-.715-.633,8.063,8.063,0,1,1,11.4,0Z" transform="translate(-15.1 -15.1)"/>
      <path id="Path_3046" data-name="Path 3046" d="M186.2,99.3a2.7,2.7,0,1,0,2.7,2.7A2.7,2.7,0,0,0,186.2,99.3Zm0,4.5A1.805,1.805,0,1,1,188,102,1.807,1.807,0,0,1,186.2,103.8Z" transform="translate(-177.233 -96.166)"/>
    </g>
  </g>
</g>
</svg>