<svg id="noun_comments_352992" xmlns="http://www.w3.org/2000/svg" width="20.151" height="19.804" viewBox="0 0 20.151 19.804">
  <g id="Group_841" data-name="Group 841" transform="translate(0)">
    <path id="Path_1028" data-name="Path 1028" d="M16.6.022A1.281,1.281,0,0,1,17.235.2a1.527,1.527,0,0,1,.512.48,2.044,2.044,0,0,1,.294.643,2.689,2.689,0,0,1,.109.73v8.708a2.277,2.277,0,0,1-.109.73,2.32,2.32,0,0,1-.294.643,1.527,1.527,0,0,1-.512.48,1.281,1.281,0,0,1-.632.174h-.687v.763a2.277,2.277,0,0,1-.109.73,2.319,2.319,0,0,1-.294.643A1.527,1.527,0,0,1,15,15.4a1.281,1.281,0,0,1-.632.174H6.032L1.041,19.7a.424.424,0,0,1-.316.1.458.458,0,0,1-.294-.153.6.6,0,0,1-.087-.163h0v-.011H.3l.033-.185.741-3.716H-.452a1.281,1.281,0,0,1-.632-.174,1.527,1.527,0,0,1-.512-.48,2.044,2.044,0,0,1-.294-.643A2.688,2.688,0,0,1-2,13.546V4.839a2.277,2.277,0,0,1,.109-.73A2.319,2.319,0,0,1-1.6,3.466a1.527,1.527,0,0,1,.512-.48,1.281,1.281,0,0,1,.632-.174H2.37V2.049a2.277,2.277,0,0,1,.109-.73A2.319,2.319,0,0,1,2.773.676,1.527,1.527,0,0,1,3.286.2,1.281,1.281,0,0,1,3.918.022c2.517,0,3.858,0,5.057-.011h.044C11.394,0,13.29-.011,16.451.022H16.6ZM15.056,12.337V4.828a1.646,1.646,0,0,0-.065-.48,1.309,1.309,0,0,0-.185-.392.827.827,0,0,0-.218-.218.385.385,0,0,0-.207-.065H-.387a.359.359,0,0,0-.207.065.69.69,0,0,0-.218.218A1.309,1.309,0,0,0-1,4.348a1.7,1.7,0,0,0-.065.48v8.708a1.646,1.646,0,0,0,.065.48,1.309,1.309,0,0,0,.185.392.827.827,0,0,0,.218.218.385.385,0,0,0,.207.065h2.2v.033a.436.436,0,0,1,.207.163.42.42,0,0,1,.065.327h0l-.61,3.041L5.64,14.8a.262.262,0,0,1,.131-.076h0a.385.385,0,0,1,.153-.033h8.49a.359.359,0,0,0,.207-.065.69.69,0,0,0,.218-.218,1.309,1.309,0,0,0,.185-.392,1.7,1.7,0,0,0,.065-.48v-1.2ZM3.242,2.8H14.347a1.281,1.281,0,0,1,.632.174,1.527,1.527,0,0,1,.512.48,2.044,2.044,0,0,1,.294.643,2.689,2.689,0,0,1,.109.73V11.9h.687a.359.359,0,0,0,.207-.065.69.69,0,0,0,.218-.218,1.309,1.309,0,0,0,.185-.392,1.7,1.7,0,0,0,.065-.48V2.038a1.646,1.646,0,0,0-.065-.48,1.309,1.309,0,0,0-.185-.392.827.827,0,0,0-.218-.218.385.385,0,0,0-.207-.065h-.153C13.268.861,11.372.861,9.007.872H9c-.774,0-1.591.011-2.441.011H3.9a.359.359,0,0,0-.207.065.827.827,0,0,0-.218.218h0a1.309,1.309,0,0,0-.185.392,1.7,1.7,0,0,0-.065.48V2.8Z" transform="translate(2)"/>
  </g>
</svg>
