<svg id="noun_Unhappy_688522" xmlns="http://www.w3.org/2000/svg" width="58.879" height="58.879" viewBox="0 0 58.879 58.879">
<g id="Group_80" data-name="Group 80" transform="translate(0 0)">
  <path id="Path_181" data-name="Path 181" d="M34.84,8.664A25.776,25.776,0,1,1,9.129,34.439,25.826,25.826,0,0,1,34.84,8.664M34.84,5a29.439,29.439,0,1,0,29.44,29.439A29.4,29.4,0,0,0,34.84,5Z" transform="translate(-5.4 -5)" fill="red"/>
  <ellipse id="Ellipse_15" data-name="Ellipse 15" cx="4.449" cy="4.449" rx="4.449" ry="4.449" transform="translate(16.617 18.383)" fill="red"/>
  <ellipse id="Ellipse_16" data-name="Ellipse 16" cx="4.449" cy="4.449" rx="4.449" ry="4.449" transform="translate(33.823 18.383)" fill="red"/>
  <path id="Path_182" data-name="Path 182" d="M40.384,56.7A23.012,23.012,0,0,0,22.72,64.878c-1.7,2.028,1.112,4.449,2.617,2.617A19.359,19.359,0,0,1,55.3,67.56a1.837,1.837,0,1,0,2.748-2.421A22.839,22.839,0,0,0,40.384,56.7Z" transform="translate(-11.206 -22.877)" fill="red"/>
</g>
</svg>