<svg id="noun_Unhappy_688522" xmlns="http://www.w3.org/2000/svg" width="45.557" height="45.557" viewBox="0 0 45.557 45.557">
<g id="Group_80" data-name="Group 80" transform="translate(0 0)">
  <path id="Path_181" data-name="Path 181" d="M28.178,7.835A19.944,19.944,0,1,1,8.285,27.778,19.983,19.983,0,0,1,28.178,7.835m0-2.835A22.778,22.778,0,1,0,50.957,27.778,22.748,22.748,0,0,0,28.178,5Z" transform="translate(-5.4 -5)" fill="#c5c5c5"/>
  <ellipse id="Ellipse_15" data-name="Ellipse 15" cx="3.442" cy="3.442" rx="3.442" ry="3.442" transform="translate(12.857 14.224)" fill="#c5c5c5"/>
  <ellipse id="Ellipse_16" data-name="Ellipse 16" cx="3.442" cy="3.442" rx="3.442" ry="3.442" transform="translate(26.17 14.224)" fill="#c5c5c5"/>
  <path id="Path_182" data-name="Path 182" d="M36.268,56.7A17.805,17.805,0,0,0,22.6,63.027c-1.316,1.569.861,3.442,2.025,2.025a14.979,14.979,0,0,1,23.183.051,1.421,1.421,0,1,0,2.126-1.873A17.671,17.671,0,0,0,36.268,56.7Z" transform="translate(-13.692 -30.53)" fill="#c5c5c5"/>
</g>
</svg>