<svg xmlns="http://www.w3.org/2000/svg" width="24" height="24" viewBox="0 0 24 24">
<g id="Group_2720" data-name="Group 2720" transform="translate(87 -4082)">
  <g id="noun_QR_Code_2283218" data-name="noun_QR Code_2283218" transform="translate(-86.072 4085)">
    <g id="Group_2713" data-name="Group 2713" transform="translate(2.072 0)">
      <g id="Group_2712" data-name="Group 2712">
        <path id="Path_3040" data-name="Path 3040" d="M34.558,30a.391.391,0,0,0-.414.414v3.729H30.414a.414.414,0,0,0,0,.829h4.143a.391.391,0,0,0,.414-.414V30.414A.391.391,0,0,0,34.558,30Z" transform="translate(-17.386 -17.919)"/>
        <path id="Path_3041" data-name="Path 3041" d="M10.558,34.143H6.829V30.414a.414.414,0,0,0-.829,0v4.143a.391.391,0,0,0,.414.414h4.143a.414.414,0,0,0,0-.829Z" transform="translate(-5.586 -17.919)"/>
        <path id="Path_3042" data-name="Path 3042" d="M6.414,10.972a.391.391,0,0,0,.414-.414V6.829h3.729a.414.414,0,0,0,0-.829H6.414A.391.391,0,0,0,6,6.414v4.143A.391.391,0,0,0,6.414,10.972Z" transform="translate(-5.586 -6)"/>
        <path id="Path_3043" data-name="Path 3043" d="M30.414,6.829h3.729v3.729a.414.414,0,0,0,.829,0V6.414A.391.391,0,0,0,34.558,6H30.414a.414.414,0,0,0,0,.829Z" transform="translate(-17.386 -6)"/>
        <path id="Path_3044" data-name="Path 3044" d="M22.526,18.691H18.737V14.521A.471.471,0,0,0,18.263,14H9.737a.471.471,0,0,0-.474.521v4.169H5.474a.524.524,0,0,0,0,1.042H9.263V23.9a.471.471,0,0,0,.474.521h8.526a.471.471,0,0,0,.474-.521V19.733h3.789a.524.524,0,0,0,0-1.042ZM10.211,15.042h7.579v3.648H10.211Zm7.579,8.339H10.211V19.733h7.579Z" transform="translate(-5 -10.685)"/>
      </g>
    </g>
  </g>
</g>
</svg>