<svg xmlns="http://www.w3.org/2000/svg" width="17.333" height="20.931" viewBox="0 0 17.333 20.931">
  <g id="Group_3372" data-name="Group 3372" transform="translate(-10)">
    <g id="Group_862" data-name="Group 862" transform="translate(12.99 2.946)">
      <path id="Path_1057" data-name="Path 1057" d="M36.25,32.077H32a.654.654,0,0,1-.654-.654c0-2.619-1.1-3.331-1.148-3.36a.557.557,0,0,1-.132-.1,5.754,5.754,0,0,1-.1-8.223,5.894,5.894,0,0,1,8.324,0,5.755,5.755,0,0,1-.1,8.223.658.658,0,0,1-.145.109c-.034.022-1.135.734-1.135,3.353A.654.654,0,0,1,36.25,32.077Zm-3.619-1.308h2.986c.171-2.563,1.324-3.536,1.691-3.783a4.458,4.458,0,0,0,.053-6.323,4.584,4.584,0,0,0-6.474,0,4.456,4.456,0,0,0,.052,6.323C31.308,27.233,32.461,28.206,32.632,30.769Z" transform="translate(-28.284 -18.017)"/>
    </g>
    <g id="Group_863" data-name="Group 863" transform="translate(17.195 19.623)">
      <path id="Path_1058" data-name="Path 1058" d="M56.616,121.308H54.654a.654.654,0,1,1,0-1.308h1.962a.654.654,0,1,1,0,1.308Z" transform="translate(-54 -120)"/>
    </g>
    <g id="Group_864" data-name="Group 864" transform="translate(16.541 17.661)">
      <path id="Path_1059" data-name="Path 1059" d="M53.925,109.308h-3.27a.654.654,0,0,1,0-1.308h3.27a.654.654,0,0,1,0,1.308Z" transform="translate(-50 -108)"/>
    </g>
    <g id="Group_865" data-name="Group 865" transform="translate(18.013)">
      <path id="Path_1060" data-name="Path 1060" d="M59.654,2.289A.654.654,0,0,1,59,1.635V.654a.654.654,0,0,1,1.308,0v.981A.654.654,0,0,1,59.654,2.289Z" transform="translate(-59)"/>
    </g>
    <g id="Group_866" data-name="Group 866" transform="translate(10 8.013)">
      <path id="Path_1061" data-name="Path 1061" d="M11.635,50.308h-.981a.654.654,0,0,1,0-1.308h.981a.654.654,0,0,1,0,1.308Z" transform="translate(-10 -49)"/>
    </g>
    <g id="Group_867" data-name="Group 867" transform="translate(25.371 8.013)">
      <path id="Path_1062" data-name="Path 1062" d="M105.308,50.308h-.654a.654.654,0,1,1,0-1.308h.654a.654.654,0,0,1,0,1.308Z" transform="translate(-104 -49)"/>
    </g>
    <g id="Group_868" data-name="Group 868" transform="translate(12.347 12.985)">
      <path id="Path_1063" data-name="Path 1063" d="M25,81.412a.654.654,0,0,1-.463-1.117l.693-.693a.654.654,0,0,1,.925.925l-.693.694A.652.652,0,0,1,25,81.412Z" transform="translate(-24.35 -79.41)"/>
    </g>
    <g id="Group_869" data-name="Group 869" transform="translate(23.216 2.347)">
      <path id="Path_1064" data-name="Path 1064" d="M91.475,16.121A.654.654,0,0,1,91.012,15l.463-.463a.654.654,0,0,1,.925.925l-.463.463A.651.651,0,0,1,91.475,16.121Z" transform="translate(-90.82 -14.35)"/>
    </g>
    <g id="Group_870" data-name="Group 870" transform="translate(12.346 2.347)">
      <path id="Path_1065" data-name="Path 1065" d="M25.7,16.352a.652.652,0,0,1-.463-.192l-.693-.693a.654.654,0,0,1,.925-.925l.693.693a.654.654,0,0,1-.462,1.117Z" transform="translate(-24.349 -14.35)"/>
    </g>
    <g id="Group_871" data-name="Group 871" transform="translate(23.216 13.216)">
      <path id="Path_1066" data-name="Path 1066" d="M91.937,82.591a.652.652,0,0,1-.462-.191l-.463-.463a.654.654,0,0,1,.925-.925l.463.463a.654.654,0,0,1-.463,1.117Z" transform="translate(-90.82 -80.82)"/>
    </g>
  </g>
</svg>
