<svg xmlns="http://www.w3.org/2000/svg" width="20.559" height="21.9" viewBox="0 0 20.559 21.9">
  <g id="Group_3369" data-name="Group 3369" transform="translate(208 173)">
    <g id="Group_856" data-name="Group 856" transform="translate(-208 -173)">
      <path id="Path_1046" data-name="Path 1046" d="M-292.084-17a.384.384,0,0,0,.144.013c.476.01.953-.01,1.429.022a.569.569,0,0,1,.566.5.674.674,0,0,1-.2.662.472.472,0,0,1-.3.129c-.2.009-.409.02-.614.023-1.843.031-3.687.011-5.53.029-1.862.018-3.724.012-5.586.017a.55.55,0,0,0-.246.058,2.114,2.114,0,0,0-.782.543,3.189,3.189,0,0,0-.368.662.294.294,0,0,0-.014.12q0,6.117,0,12.234a.42.42,0,0,0,.048.2c.066.125.119.258.194.377A1.614,1.614,0,0,0-301.96-.6c.331.011.665.007.992.05a1.614,1.614,0,0,1,1.223.825c.074.125.132.259.2.388a.292.292,0,0,1,.032.129c.006.32.016.64.02.96,0,.4.015.8.043,1.2a.59.59,0,0,0,.54.553.562.562,0,0,0,.4-.093c.794-.549,1.562-1.132,2.336-1.707.747-.555,1.484-1.124,2.253-1.649a5.218,5.218,0,0,1,.662-.393,2.681,2.681,0,0,1,1.13-.223c.9-.023,1.8-.016,2.7-.029.745-.011,1.489-.013,2.234-.019a.29.29,0,0,0,.1-.014,1.982,1.982,0,0,0,1.23-1.228.482.482,0,0,0,.014-.166c.009-2.462.01-4.923.03-7.385.009-1.147,0-2.294.02-3.441.006-.294,0-.588.031-.881a.556.556,0,0,1,.5-.526.667.667,0,0,1,.7.261.654.654,0,0,1,.09.384c.041,1.005.016,2.011.025,3.016a.468.468,0,0,0,.013.155v7.955a.8.8,0,0,0-.014.244,4.746,4.746,0,0,1-.038.813,2.568,2.568,0,0,1-.687,1.343,2.531,2.531,0,0,1-1.575.831A13.824,13.824,0,0,1-288.2.806c-1.173.015-2.345.008-3.518.014a5.265,5.265,0,0,0-.712.049,1.763,1.763,0,0,0-.792.39q-2.1,1.555-4.2,3.11a2.451,2.451,0,0,1-1.138.532h-.536c-.032-.008-.064-.019-.1-.025a2.058,2.058,0,0,1-1.677-2.039c.009-.476-.019-.952-.043-1.427a.565.565,0,0,0-.546-.568c-.278-.02-.557-.028-.835-.049a2.991,2.991,0,0,1-.781-.113A2.842,2.842,0,0,1-304.6-.54a2.084,2.084,0,0,1-.338-.9c-.043-.474-.031-.952-.041-1.428-.013-.621-.007-1.243-.009-1.865A.457.457,0,0,0-305-4.888v-6.436a.452.452,0,0,0,.014-.155c0-.986,0-1.973.029-2.959a2.452,2.452,0,0,1,.036-.444,2.721,2.721,0,0,1,2.583-2.105,2.149,2.149,0,0,0,.49-.014Z" transform="translate(305 17)"/>
      <path id="Path_1047" data-name="Path 1047" d="M431.6-17c.052.02.1.038.155.061a.663.663,0,0,1,.375.776.7.7,0,0,1-.706.533.71.71,0,0,1-.647-.606.682.682,0,0,1,.428-.73l.082-.034Z" transform="translate(-414.323 17)"/>
    </g>
    <g id="Group_858" data-name="Group 858" transform="translate(-200.977 -169.489)">
      <path id="Path_1052" data-name="Path 1052" d="M128.38,525.263a3.518,3.518,0,0,1,2.447.962,2.447,2.447,0,0,1,.064,3.519,14.911,14.911,0,0,1-1.22,1.129,2.287,2.287,0,0,0-.843,1.425.845.845,0,0,1-1.211.686.937.937,0,0,1-.536-.96,2.559,2.559,0,0,1,.872-1.913c.394-.363.79-.723,1.181-1.089a1.41,1.41,0,0,0,.465-.729,1.194,1.194,0,0,0-.8-1.391,1.919,1.919,0,0,0-1.3.018,1.251,1.251,0,0,0-.626.591,5.767,5.767,0,0,0-.4.925.922.922,0,0,1-1.632.253,1,1,0,0,1-.159-.87,2.865,2.865,0,0,1,1.092-1.753A3.9,3.9,0,0,1,128.38,525.263Zm-.145.092a3.629,3.629,0,0,0-2.49.852,2.556,2.556,0,0,0-.99,1.953.829.829,0,0,0,.6.79.8.8,0,0,0,.962-.384,2.412,2.412,0,0,0,.149-.362,3.837,3.837,0,0,1,.41-.857,1.268,1.268,0,0,1,.779-.572,2.154,2.154,0,0,1,1-.013,1.321,1.321,0,0,1,1.043,1.484,1.385,1.385,0,0,1-.448.781c-.367.347-.742.684-1.118,1.02a2.507,2.507,0,0,0-.944,2.209.731.731,0,0,0,.715.7.719.719,0,0,0,.821-.595c.022-.084.044-.169.058-.255a1.9,1.9,0,0,1,.633-1.113c.5-.455,1.015-.885,1.471-1.382a2.372,2.372,0,0,0-.205-3.41A3.571,3.571,0,0,0,128.234,525.355Z" transform="translate(-124.656 -525.263)" stroke="#1a1818" stroke-miterlimit="10" stroke-width="0.5"/>
      <path id="Path_1053" data-name="Path 1053" d="M132.8,549.546a1.008,1.008,0,0,1-1.069,1.043,1.043,1.043,0,0,1-1.082-1.065,1.063,1.063,0,0,1,1.1-1.056A1.019,1.019,0,0,1,132.8,549.546Zm-1.059-.989a.96.96,0,0,0-1,.961.934.934,0,0,0,.989.981.971.971,0,1,0,.009-1.943Z" transform="translate(-128.354 -539.574)" stroke="#1a1818" stroke-miterlimit="10" stroke-width="0.5"/>
    </g>
  </g>
</svg>
