<svg id="noun_Neutral_15372" xmlns="http://www.w3.org/2000/svg" width="58.879" height="58.879" viewBox="0 0 58.879 58.879">
<g id="Group_81" data-name="Group 81" transform="translate(0 0)">
  <path id="Path_184" data-name="Path 184" d="M56.5,71h-21a1.5,1.5,0,1,1,0-3h21a1.5,1.5,0,1,1,0,3Z" transform="translate(-15.665 -25.248)" fill="#fc0"/>
  <path id="Path_193" data-name="Path 193" d="M34.84,8.664A25.776,25.776,0,1,1,9.129,34.439,25.826,25.826,0,0,1,34.84,8.664M34.84,5a29.439,29.439,0,1,0,29.44,29.439A29.4,29.4,0,0,0,34.84,5Z" transform="translate(-5.4 -5)" fill="#fc0"/>
  <ellipse id="Ellipse_17" data-name="Ellipse 17" cx="4.449" cy="4.449" rx="4.449" ry="4.449" transform="translate(16.617 18.383)" fill="#fc0"/>
  <ellipse id="Ellipse_18" data-name="Ellipse 18" cx="4.449" cy="4.449" rx="4.449" ry="4.449" transform="translate(33.823 18.383)" fill="#fc0"/>
</g>
</svg>