<svg id="noun_Neutral_15372" xmlns="http://www.w3.org/2000/svg" width="45.557" height="45.557" viewBox="0 0 45.557 45.557">
<g id="Group_81" data-name="Group 81" transform="translate(0 0)">
  <path id="Path_184" data-name="Path 184" d="M51.412,70.322H35.161a1.161,1.161,0,1,1,0-2.322H51.412a1.161,1.161,0,1,1,0,2.322Z" transform="translate(-19.814 -34.922)" fill="#c5c5c5"/>
  <path id="Path_193" data-name="Path 193" d="M28.178,7.835A19.944,19.944,0,1,1,8.285,27.778,19.983,19.983,0,0,1,28.178,7.835m0-2.835A22.778,22.778,0,1,0,50.957,27.778,22.748,22.748,0,0,0,28.178,5Z" transform="translate(-5.4 -5)" fill="#c5c5c5"/>
  <ellipse id="Ellipse_17" data-name="Ellipse 17" cx="3.442" cy="3.442" rx="3.442" ry="3.442" transform="translate(12.857 14.224)" fill="#c5c5c5"/>
  <ellipse id="Ellipse_18" data-name="Ellipse 18" cx="3.442" cy="3.442" rx="3.442" ry="3.442" transform="translate(26.17 14.224)" fill="#c5c5c5"/>
</g>
</svg>